<svg xmlns="http://www.w3.org/2000/svg" width="262.922" height="97" viewBox="0 0 262.922 97">
  <g id="Group_18743" data-name="Group 18743" transform="translate(-144.66 -43.94)">
    <path id="Path_86" data-name="Path 86" d="M175.96,41.51a3.24,3.24,0,1,0,3.24,3.232,3.24,3.24,0,0,0-3.24-3.232" transform="translate(-5.43 2.43)" fill="#666667"/>
    <path id="Path_87" data-name="Path 87" d="M162.495,55a3.24,3.24,0,1,0,2.3.937,3.24,3.24,0,0,0-2.3-.937" transform="translate(-3.271 0.263)" fill="#666667"/>
    <path id="Path_88" data-name="Path 88" d="M175.96,55a3.24,3.24,0,1,0,3.24,3.24A3.24,3.24,0,0,0,175.96,55" transform="translate(-5.43 0.263)" fill="#666667"/>
    <path id="Path_89" data-name="Path 89" d="M189.448,55a3.24,3.24,0,1,0,3.232,3.24A3.24,3.24,0,0,0,189.448,55" transform="translate(-7.595 0.263)" fill="#666667"/>
    <path id="Path_90" data-name="Path 90" d="M202.92,55a3.232,3.232,0,1,0,2.293.947A3.24,3.24,0,0,0,202.92,55" transform="translate(-9.76 0.263)" fill="#666667"/>
    <path id="Path_91" data-name="Path 91" d="M149,68.47a3.24,3.24,0,1,0,3.24,3.24A3.24,3.24,0,0,0,149,68.47" transform="translate(-1.1 -1.9)" fill="#666667"/>
    <path id="Path_92" data-name="Path 92" d="M162.495,68.47a3.249,3.249,0,1,0,.034,0" transform="translate(-3.271 -1.9)" fill="#666667"/>
    <path id="Path_93" data-name="Path 93" d="M216.38,68.47a3.24,3.24,0,1,0,3.24,3.24,3.24,3.24,0,0,0-3.24-3.24" transform="translate(-11.921 -1.9)" fill="#666667"/>
    <path id="Path_94" data-name="Path 94" d="M149,82a3.232,3.232,0,1,0,2.293.947A3.24,3.24,0,0,0,149,82" transform="translate(-1.1 -4.073)" fill="#666667"/>
    <path id="Path_100" data-name="Path 100" d="M216.38,82a3.232,3.232,0,1,0,2.294.947A3.24,3.24,0,0,0,216.38,82" transform="translate(-11.921 -4.073)" fill="#666667"/>
    <path id="Path_101" data-name="Path 101" d="M216.38,95.35a3.232,3.232,0,1,0,2.294.947,3.24,3.24,0,0,0-2.294-.947" transform="translate(-11.921 -6.217)" fill="#666667"/>
    <path id="Path_103" data-name="Path 103" d="M189.448,68.44a3.24,3.24,0,1,0,3.232,3.24,3.24,3.24,0,0,0-3.232-3.24" transform="translate(-7.595 -1.895)" fill="#666667"/>
    <path id="Path_105" data-name="Path 105" d="M229.888,88.42a3.232,3.232,0,1,0-2.3-.941,3.24,3.24,0,0,0,2.3.941" transform="translate(-14.09 -4.063)" fill="#666667"/>
    <path id="Path_106" data-name="Path 106" d="M149,95.43a3.24,3.24,0,1,0,3.24,3.24A3.24,3.24,0,0,0,149,95.43" transform="translate(-1.1 -6.23)" fill="#666667"/>
    <path id="Path_107" data-name="Path 107" d="M229.888,95.43a3.24,3.24,0,1,0,3.232,3.24,3.24,3.24,0,0,0-3.232-3.24" transform="translate(-14.09 -6.23)" fill="#666667"/>
    <path id="Path_108" data-name="Path 108" d="M149,108.91a3.24,3.24,0,1,0,3.24,3.24,3.24,3.24,0,0,0-3.24-3.24" transform="translate(-1.1 -8.395)" fill="#666667"/>
    <g id="Group_16270" data-name="Group 16270" transform="translate(167.29 66.545)">
      <rect id="Rectangle_30" data-name="Rectangle 30" width="6.48" height="45.588" transform="translate(0 3.19)" fill="#27a7df"/>
      <path id="Path_102" data-name="Path 102" d="M175.96,68.44a3.24,3.24,0,1,0,3.24,3.24,3.24,3.24,0,0,0-3.24-3.24" transform="translate(-172.72 -68.44)" fill="#27a7df"/>
      <path id="Path_112" data-name="Path 112" d="M175.96,122.39a3.24,3.24,0,1,0,3.24,3.24,3.24,3.24,0,0,0-3.24-3.24" transform="translate(-172.72 -77.105)" fill="#27a7df"/>
    </g>
    <g id="Group_16271" data-name="Group 16271" transform="translate(178.605 77.927)">
      <rect id="Rectangle_28" data-name="Rectangle 28" width="6.447" height="34.6" transform="translate(0.025 2.795)" fill="#80c142"/>
      <path id="Path_96" data-name="Path 96" d="M189.448,82a3.232,3.232,0,1,0,2.288.949A3.24,3.24,0,0,0,189.448,82" transform="translate(-186.2 -82)" fill="#80c142"/>
      <path id="Path_113" data-name="Path 113" d="M189.448,122.39a3.24,3.24,0,1,0,3.232,3.24,3.24,3.24,0,0,0-3.232-3.24" transform="translate(-186.2 -88.487)" fill="#80c142"/>
    </g>
    <g id="Group_16272" data-name="Group 16272" transform="translate(189.92 66.545)">
      <rect id="Rectangle_31" data-name="Rectangle 31" width="6.48" height="45.588" transform="translate(0 3.206)" fill="#ffda67"/>
      <path id="Path_104" data-name="Path 104" d="M202.92,68.44a3.232,3.232,0,1,0,2.293.947,3.24,3.24,0,0,0-2.293-.947" transform="translate(-199.68 -68.44)" fill="#ffda67"/>
      <path id="Path_114" data-name="Path 114" d="M202.92,122.39a3.232,3.232,0,1,0,2.293.947,3.24,3.24,0,0,0-2.293-.947" transform="translate(-199.68 -77.105)" fill="#ffda67"/>
    </g>
    <path id="Path_115" data-name="Path 115" d="M229.888,108.91a3.24,3.24,0,1,0,3.232,3.24,3.24,3.24,0,0,0-3.232-3.24" transform="translate(-14.09 -8.395)" fill="#666667"/>
    <path id="Path_117" data-name="Path 117" d="M216.38,122.39a3.24,3.24,0,1,0,3.24,3.24,3.24,3.24,0,0,0-3.24-3.24" transform="translate(-11.921 -10.56)" fill="#666667"/>
    <path id="Path_118" data-name="Path 118" d="M162.488,135.87a3.24,3.24,0,1,0,3.232,3.24,3.24,3.24,0,0,0-3.232-3.24" transform="translate(-3.265 -12.725)" fill="#666667"/>
    <path id="Path_119" data-name="Path 119" d="M175.96,135.87a3.24,3.24,0,1,0,3.24,3.24,3.24,3.24,0,0,0-3.24-3.24" transform="translate(-5.43 -12.725)" fill="#666667"/>
    <path id="Path_120" data-name="Path 120" d="M189.448,135.87a3.24,3.24,0,1,0,3.232,3.24,3.24,3.24,0,0,0-3.232-3.24" transform="translate(-7.595 -12.725)" fill="#666667"/>
    <path id="Path_121" data-name="Path 121" d="M202.92,135.87a3.232,3.232,0,1,0,2.293.947,3.24,3.24,0,0,0-2.293-.947" transform="translate(-9.76 -12.725)" fill="#666667"/>
    <path id="Path_122" data-name="Path 122" d="M189.448,149.35a3.24,3.24,0,1,0,3.232,3.24,3.24,3.24,0,0,0-3.232-3.24" transform="translate(-7.595 -14.89)" fill="#666667"/>
    <path id="Path_123" data-name="Path 123" d="M216.38,108.91a3.24,3.24,0,1,0,3.24,3.24,3.24,3.24,0,0,0-3.24-3.24" transform="translate(-11.921 -8.395)" fill="#666667"/>
    <g id="Group_16269" data-name="Group 16269" transform="translate(155.975 77.927)">
      <rect id="Rectangle_29" data-name="Rectangle 29" width="6.447" height="34.6" transform="translate(0.025 2.795)" fill="#dc6f53"/>
      <path id="Path_116" data-name="Path 116" d="M162.488,122.39a3.24,3.24,0,1,0,3.232,3.24,3.24,3.24,0,0,0-3.232-3.24" transform="translate(-159.24 -88.487)" fill="#dc6f53"/>
      <path id="Path_125" data-name="Path 125" d="M162.487,82a3.24,3.24,0,1,0,3.274,3.2,3.24,3.24,0,0,0-3.274-3.2" transform="translate(-159.246 -82)" fill="#dc6f53"/>
    </g>
    <path id="Path_128" data-name="Path 128" d="M342.485,106.64h-.2A2,2,0,0,1,340,104.365V72.888h0a.579.579,0,0,0-.571-.588H336.5v32.065a5.674,5.674,0,0,0,5.733,5.783h.839v-2.913h0a.579.579,0,0,0-.579-.579" transform="translate(-31.734 -2.515)" fill="#231f20"/>
    <path id="Path_129" data-name="Path 129" d="M280.97,107.832h-.243a1.988,1.988,0,0,1-2.241-2.275V94.536a13.212,13.212,0,0,0-26.416,0v4.13a12.8,12.8,0,0,0,3.861,9.342h0a13.43,13.43,0,0,0,8.125,3.433h1.956a13.867,13.867,0,0,0,4.877-1.184,12.591,12.591,0,0,0,2.359-1.41l-1.931-1.981a.546.546,0,0,0-.436-.2.554.554,0,0,0-.319.1h0a9.065,9.065,0,0,1-5.28,1.578h-.2a9.536,9.536,0,0,1-6.606-2.8A9.351,9.351,0,0,1,255.6,98.64v-4.1a9.141,9.141,0,0,1,2.862-6.807,9.292,9.292,0,0,1,6.849-2.862,9.779,9.779,0,0,1,9.619,9.67V104.81a7.553,7.553,0,0,0,.588,3.358h0a5.388,5.388,0,0,0,1.444,1.889,5.5,5.5,0,0,0,3.719,1.335h.839v-2.938a.579.579,0,0,0-.579-.571" transform="translate(-18.174 -4.018)" fill="#231f20"/>
    <path id="Path_130" data-name="Path 130" d="M322.167,98.922V94.474a13.2,13.2,0,1,0-26.407,0v4.591h0v12.381h2.8a.688.688,0,0,0,.688-.688V94.474a9.133,9.133,0,0,1,2.854-6.807,9.3,9.3,0,0,1,6.849-2.862,9.771,9.771,0,0,1,9.67,9.67v4.474h0v11.919a.688.688,0,0,0,.688.688h2.862V98.964Z" transform="translate(-25.191 -3.956)" fill="#231f20"/>
    <path id="Path_131" data-name="Path 131" d="M354,81.78h2.862a.7.7,0,0,1,.7.7v29.135H354Z" transform="translate(-34.544 -4.038)" fill="#231f20"/>
    <path id="Path_132" data-name="Path 132" d="M379.457,81.78v2.862a.7.7,0,0,1-.7.7H365.33V81.78Z" transform="translate(-36.364 -4.038)" fill="#231f20"/>
    <circle id="Ellipse_14" data-name="Ellipse 14" cx="2.317" cy="2.317" r="2.317" transform="translate(318.876 69.777)" fill="#231f20"/>
    <circle id="Ellipse_15" data-name="Ellipse 15" cx="2.317" cy="2.317" r="2.317" transform="translate(349.674 69.777)" fill="#231f20"/>
    <path id="Path_133" data-name="Path 133" d="M390.65,82.2H393.5a.7.7,0,0,1,.7.688V111.68H390.65Z" transform="translate(-40.431 -4.105)" fill="#231f20"/>
    <path id="Path_134" data-name="Path 134" d="M406.1,71.88h2.862a.7.7,0,0,1,.7.7v37.445H406.1Z" transform="translate(-42.912 -2.448)" fill="#231f20"/>
    <path id="Path_135" data-name="Path 135" d="M379.38,107.163a.579.579,0,0,0-.579-.579h-1.679a2,2,0,0,1-2.283-2.275V72.529h0a.588.588,0,0,0-.579-.579h-2.93v32.359a5.691,5.691,0,0,0,5.742,5.783h2.308v-2.913h0Z" transform="translate(-37.327 -2.459)" fill="#231f20"/>
    <path id="Path_136" data-name="Path 136" d="M439.68,108.066l2.115-1.536a.562.562,0,0,1,.764.109,5.3,5.3,0,0,0,3.307,1.8,5.716,5.716,0,0,0,6.656-4.667q.562-3.45-1.326-4.91a22.645,22.645,0,0,0-2.006-1.444c-.705-.453-1.452-.89-2.241-1.3a22.12,22.12,0,0,1-2.216-1.393,13.838,13.838,0,0,1-1.939-1.628q-1.8-1.788-1.133-5.758a6.925,6.925,0,0,1,2.93-4.768,7.278,7.278,0,0,1,5.523-1.276,7.68,7.68,0,0,1,4.944,3.165L453,85.9a.63.63,0,0,1-.839-.076,4.44,4.44,0,0,0-2.518-1.419,4.247,4.247,0,0,0-3.19.713,3.937,3.937,0,0,0-1.721,2.736q-.428,2.888,1.461,4.2a37,37,0,0,0,4.256,2.518,14.984,14.984,0,0,1,4.155,3.358q1.788,2.073,1.083,6.371a8.6,8.6,0,0,1-3.635,5.758,12.793,12.793,0,0,1-6.614,1.326,7.957,7.957,0,0,1-5.758-3.316Z" transform="translate(-48.305 -3.941)" fill="#231f20"/>
    <path id="Path_137" data-name="Path 137" d="M418.859,97.141a.6.6,0,0,1,0-.705L432.122,82.2h-4.3a.579.579,0,0,0-.47.227L416.333,93.691l-1.142,1.192a2.761,2.761,0,0,0-.672,1.914,2.8,2.8,0,0,0,.671,1.763l1.142,1.284,11.416,11.567a.587.587,0,0,0,.47.235h4.331Z" transform="translate(-44.264 -4.105)" fill="#231f20"/>
    <text id="An_Excelra_Company" data-name="An Excelra Company" transform="translate(255.905 122.139)" fill="#0098cc" font-size="8" font-family="SegoeUI, Segoe UI"><tspan x="0" y="0">An </tspan><tspan y="0" letter-spacing="-0.01em">E</tspan><tspan y="0" letter-spacing="-0.02em">x</tspan><tspan y="0">cel</tspan><tspan y="0" letter-spacing="-0.01em">r</tspan><tspan y="0">a Compa</tspan><tspan y="0" letter-spacing="-0.02em">n</tspan><tspan y="0">y</tspan></text>
  </g>
</svg>
