<svg xmlns="http://www.w3.org/2000/svg" width="204.893" height="47.07" viewBox="0 0 204.893 47.07">
  <g id="sectrio_logo-_dark" data-name="sectrio logo- dark" transform="translate(-92.002 -190)">
    <g id="Group_16359" data-name="Group 16359" transform="translate(-37.888 -656.897)">
      <g id="Group_16359-2" data-name="Group 16359" transform="translate(192.789 847.156)">
        <path id="Path_6769" data-name="Path 6769" d="M304.9,864.664a15.344,15.344,0,0,1,.97-5.444,15.778,15.778,0,0,1,2.893-4.88,14.1,14.1,0,0,1,4.671-3.526,14.692,14.692,0,0,1,6.3-1.338,13.772,13.772,0,0,1,7.241,1.791,11.721,11.721,0,0,1,4.571,4.75l-4.5,3.141a7.225,7.225,0,0,0-2.021-2.7,7.47,7.47,0,0,0-2.653-1.392,9.99,9.99,0,0,0-2.775-.389,7.94,7.94,0,0,0-3.855.919A8.611,8.611,0,0,0,313,857.962a9.964,9.964,0,0,0-1.623,3.252,12.5,12.5,0,0,0-.512,3.586,11.756,11.756,0,0,0,.662,3.857,10.539,10.539,0,0,0,1.833,3.274,8.663,8.663,0,0,0,2.829,2.243,7.847,7.847,0,0,0,3.609.811,9.223,9.223,0,0,0,2.855-.486,8.1,8.1,0,0,0,2.678-1.509,6.775,6.775,0,0,0,1.9-2.656l4.836,2.744a9.023,9.023,0,0,1-2.9,3.856,14.608,14.608,0,0,1-4.528,2.416,16.227,16.227,0,0,1-4.986.84,13.069,13.069,0,0,1-5.937-1.309,14.847,14.847,0,0,1-4.649-3.555,17.076,17.076,0,0,1-3.058-5.015A15.458,15.458,0,0,1,304.9,864.664Z" transform="translate(-304.896 -848.808)" fill="#26283d"/>
        <path id="Path_6770" data-name="Path 6770" d="M420.554,854.522l-9.682.057.15,25.123-5.844.035-.149-25.123-9.683.057-.031-5.161,25.208-.15Z" transform="translate(-362.817 -848.735)" fill="#26283d"/>
        <path id="Path_6771" data-name="Path 6771" d="M487.348,879.375l-.18-30.284,13.393-.079a8.783,8.783,0,0,1,3.866.83,9.835,9.835,0,0,1,3.085,2.286,10.672,10.672,0,0,1,2.023,3.229,9.944,9.944,0,0,1,.726,3.664,10.473,10.473,0,0,1-.639,3.693,9.174,9.174,0,0,1-1.88,3.1,8.685,8.685,0,0,1-2.888,2.065l6.977,11.347-6.483.038-6.288-10.114-5.886.034.06,10.152Zm5.795-15.348,7.379-.044a3.116,3.116,0,0,0,1.958-.673,4.649,4.649,0,0,0,1.354-1.778,5.834,5.834,0,0,0,.5-2.477,5.2,5.2,0,0,0-.612-2.534,5,5,0,0,0-1.525-1.719,3.4,3.4,0,0,0-1.987-.628l-7.123.042Z" transform="translate(-421.656 -848.511)" fill="#26283d"/>
        <path id="Path_6772" data-name="Path 6772" d="M577.538,878.919l-.18-30.284,5.886-.035.18,30.284Z" transform="translate(-479.43 -848.247)" fill="#26283d"/>
        <path id="Path_6773" data-name="Path 6773" d="M632.567,878.33a13.946,13.946,0,0,1-6.042-1.244,14.243,14.243,0,0,1-4.67-3.449,16.3,16.3,0,0,1-3.037-4.93,15.513,15.513,0,0,1-1.1-5.645,15.058,15.058,0,0,1,1.1-5.787,16.331,16.331,0,0,1,3.084-4.923,14.761,14.761,0,0,1,4.671-3.44,13.947,13.947,0,0,1,5.943-1.294,13.483,13.483,0,0,1,6,1.287,14.408,14.408,0,0,1,4.649,3.513,16.914,16.914,0,0,1,3.015,4.93,15.362,15.362,0,0,1,1.1,5.624,15.208,15.208,0,0,1-1.075,5.744,16.025,16.025,0,0,1-3.063,4.924,14.482,14.482,0,0,1-4.672,3.419A14.047,14.047,0,0,1,632.567,878.33Zm-8.878-15.3a12.167,12.167,0,0,0,.62,3.793,10.382,10.382,0,0,0,1.746,3.253,8.037,8.037,0,0,0,6.523,3.054,8.039,8.039,0,0,0,3.791-.9,8.211,8.211,0,0,0,2.759-2.362,10.9,10.9,0,0,0,1.666-3.294,11.989,11.989,0,0,0,.554-3.651,11.639,11.639,0,0,0-.64-3.771,10.83,10.83,0,0,0-1.768-3.231,8.249,8.249,0,0,0-2.786-2.244,8.689,8.689,0,0,0-7.507.087,8.378,8.378,0,0,0-2.737,2.341,10.67,10.67,0,0,0-1.665,3.251A11.922,11.922,0,0,0,623.69,863.026Z" transform="translate(-505.284 -847.618)" fill="#26283d"/>
      </g>
      <circle id="Ellipse_70" data-name="Ellipse 70" cx="4.708" cy="4.708" r="4.708" transform="translate(314.912 857.861)" fill="#ae0721"/>
      <g id="Group_16360" data-name="Group 16360" transform="translate(129.888 847.564)">
        <path id="Path_6774" data-name="Path 6774" d="M150.148,856.9a7.358,7.358,0,0,0-1.088-.811,12.074,12.074,0,0,0-1.919-.98,20.662,20.662,0,0,0-2.453-.832,10.123,10.123,0,0,0-2.687-.363,6.06,6.06,0,0,0-3.6.892,2.926,2.926,0,0,0-1.215,2.5,2.552,2.552,0,0,0,.767,1.952,6.207,6.207,0,0,0,2.3,1.231q1.535.509,3.839,1.1a27,27,0,0,1,5.182,1.762,8.359,8.359,0,0,1,3.37,2.716,7.589,7.589,0,0,1,1.173,4.435,8.852,8.852,0,0,1-.9,4.138,7.425,7.425,0,0,1-2.474,2.78,11.029,11.029,0,0,1-3.583,1.55,18.049,18.049,0,0,1-4.265.488,22.2,22.2,0,0,1-4.521-.469,23.752,23.752,0,0,1-4.351-1.344,19.889,19.889,0,0,1-3.839-2.111l2.6-5.076a8.415,8.415,0,0,0,1.365,1,18.267,18.267,0,0,0,2.389,1.237,19.908,19.908,0,0,0,3.071,1.045,13.516,13.516,0,0,0,3.37.426,6.709,6.709,0,0,0,3.625-.8,2.749,2.749,0,0,0,.256-4.4,9.06,9.06,0,0,0-2.73-1.338q-1.749-.574-4.137-1.253a25.374,25.374,0,0,1-4.777-1.806,7.055,7.055,0,0,1-2.858-2.527,7.189,7.189,0,0,1-.938-3.823,8.849,8.849,0,0,1,1.471-5.2,9.167,9.167,0,0,1,3.988-3.185,13.982,13.982,0,0,1,5.587-1.084,16.734,16.734,0,0,1,4.031.47,19.852,19.852,0,0,1,3.561,1.237,21.05,21.05,0,0,1,2.986,1.663Z" transform="translate(-129.888 -848.752)" fill="#26283d"/>
      </g>
      <g id="Group_16361" data-name="Group 16361" transform="translate(156.93 846.897)">
        <path id="Path_6775" data-name="Path 6775" d="M222.164,852.878a31.312,31.312,0,0,0-9.641.909c-.645.169-1.115.544-1.014,1.26.138.983.336,1.958.533,2.931a1.661,1.661,0,0,0,1.491,1.319,33.35,33.35,0,0,0,17.624-3.2.726.726,0,0,0-.053-1.172A28.235,28.235,0,0,0,222.164,852.878ZM220.53,847.4a32.02,32.02,0,0,1,14.688,3.245,2.727,2.727,0,0,1,1.723,3.013c-.156,1.451-1.19,5.894-1.922,6.4-4.917,3.421-13.541,4.4-19.5,5.055-1.013.286-.772,1.178-.575,1.578a25.323,25.323,0,0,0,4.1,5.228,2.54,2.54,0,0,0,3.339.036c.02-.013.042-.02.062-.033a61.145,61.145,0,0,0,9.545-7.139c.577-.461,1.2.028.973.729-1.529,4.648-7.044,10.007-10.1,12.366a2.744,2.744,0,0,1-3.253-.069,31.424,31.424,0,0,1-11.338-13.433,30.57,30.57,0,0,1-2.638-10.788,2.779,2.779,0,0,1,1.678-2.913A30.37,30.37,0,0,1,220.53,847.4Z" transform="translate(-205.445 -847.217)" fill="#009cdc"/>
        <path id="Path_6776" data-name="Path 6776" d="M220.983,878.24a3.2,3.2,0,0,1-1.795-.6,31.732,31.732,0,0,1-11.4-13.508,30.9,30.9,0,0,1-2.653-10.851,2.968,2.968,0,0,1,1.777-3.085,30.7,30.7,0,0,1,13.3-3.3h0a32.227,32.227,0,0,1,14.767,3.264,2.905,2.905,0,0,1,1.822,3.194c-.144,1.343-1.178,5.961-2,6.532-5,3.479-13.775,4.446-19.581,5.087a.79.79,0,0,0-.532.408,1.19,1.19,0,0,0,.1.911,25.646,25.646,0,0,0,4.034,5.159,2.374,2.374,0,0,0,3.142.033l.05-.027a55.221,55.221,0,0,0,8.461-6.206c.405-.358.755-.666,1.08-.926a.806.806,0,0,1,.985-.092.869.869,0,0,1,.271,1.017c-1.607,4.883-7.348,10.281-10.159,12.453A3.008,3.008,0,0,1,220.983,878.24Zm-.773-30.984a30.331,30.331,0,0,0-13.138,3.261,2.609,2.609,0,0,0-1.579,2.742,30.534,30.534,0,0,0,2.622,10.725,31.377,31.377,0,0,0,11.275,13.357,2.553,2.553,0,0,0,3.054.069c3.221-2.489,8.562-7.82,10.027-12.273a.522.522,0,0,0-.134-.609.456.456,0,0,0-.556.078c-.318.255-.665.56-1.067.915a55.549,55.549,0,0,1-8.5,6.236l-.047.025a2.736,2.736,0,0,1-3.547-.032,25.594,25.594,0,0,1-4.158-5.3,1.512,1.512,0,0,1-.1-1.217,1.143,1.143,0,0,1,.791-.613c5.8-.642,14.518-1.6,19.444-5.03.618-.43,1.669-4.624,1.846-6.275a2.553,2.553,0,0,0-1.625-2.833,31.884,31.884,0,0,0-14.608-3.226ZM216.26,859.29q-1.522,0-3.064-.134a1.829,1.829,0,0,1-1.652-1.463c-.2-.97-.4-1.959-.534-2.942-.1-.721.306-1.239,1.147-1.459a31.659,31.659,0,0,1,9.695-.915h0a28.476,28.476,0,0,1,9,2.062.867.867,0,0,1,.435.7.817.817,0,0,1-.349.784A33.571,33.571,0,0,1,216.26,859.29Zm3.711-6.6a29.977,29.977,0,0,0-7.723.947c-.669.175-.958.522-.882,1.061.137.972.335,1.955.528,2.906a1.476,1.476,0,0,0,1.334,1.191,33.321,33.321,0,0,0,17.53-3.182.456.456,0,0,0,.171-.437.551.551,0,0,0-.215-.407,28.109,28.109,0,0,0-8.88-2.035Q220.879,852.694,219.971,852.694Z" transform="translate(-205.125 -846.897)" fill="#009cdc"/>
      </g>
    </g>
    <path id="Path_35376" data-name="Path 35376" d="M5.45,0h.96L3.9-6.93H2.85L.33,0h.96l.56-1.55H4.89ZM4.63-2.29H2.11L3.37-5.81ZM24.05-6.97H21.88V0h2.17c2.29,0,3.7-1.31,3.7-3.47S26.34-6.97,24.05-6.97ZM22.79-.75V-6.23h1.26a2.514,2.514,0,0,1,2.77,2.76A2.485,2.485,0,0,1,24.05-.75ZM34.8,0h.91V-6.97H34.8ZM45.72-.96,43.53-6.97h-.97L45.19,0h1.05l2.63-6.97h-.96Zm10,.96h.91V-6.97h-.91ZM68.56-1.9c0-2.58-3.76-1.46-3.76-3.26,0-.75.59-1.14,1.34-1.12a1.262,1.262,0,0,1,1.35,1.01h1a2.085,2.085,0,0,0-2.31-1.79c-1.38,0-2.31.78-2.31,1.93,0,2.59,3.77,1.39,3.77,3.27,0,.66-.52,1.16-1.4,1.16A1.291,1.291,0,0,1,64.8-1.86h-.97C63.85-.71,64.84.07,66.24.07A2.088,2.088,0,0,0,68.56-1.9ZM75.75,0h.91V-6.97h-.91ZM90.72-3.49a3.432,3.432,0,0,0-3.5-3.56,3.438,3.438,0,0,0-3.5,3.56A3.438,3.438,0,0,0,87.22.07,3.432,3.432,0,0,0,90.72-3.49Zm-6.07,0a2.541,2.541,0,0,1,2.57-2.77,2.541,2.541,0,0,1,2.57,2.77A2.546,2.546,0,0,1,87.22-.72,2.546,2.546,0,0,1,84.65-3.49Zm17.69-3.49v5.54L98.68-6.98h-.91V0h.91V-5.55L102.34,0h.91V-6.98Zm23.49,3.49a3.432,3.432,0,0,0-3.5-3.56,3.438,3.438,0,0,0-3.5,3.56,3.438,3.438,0,0,0,3.5,3.56A3.432,3.432,0,0,0,125.83-3.49Zm-6.07,0a2.541,2.541,0,0,1,2.57-2.77,2.541,2.541,0,0,1,2.57,2.77,2.546,2.546,0,0,1-2.57,2.77A2.546,2.546,0,0,1,119.76-3.49ZM132.88,0h.91V-3.14h2.46v-.74h-2.46V-6.23h3.03v-.74h-3.94Zm23.94-1.9c0-2.58-3.76-1.46-3.76-3.26,0-.75.59-1.14,1.34-1.12a1.262,1.262,0,0,1,1.35,1.01h1a2.085,2.085,0,0,0-2.31-1.79c-1.38,0-2.31.78-2.31,1.93,0,2.59,3.77,1.39,3.77,3.27,0,.66-.52,1.16-1.4,1.16a1.291,1.291,0,0,1-1.44-1.16h-.97C152.11-.71,153.1.07,154.5.07A2.088,2.088,0,0,0,156.82-1.9Zm7.17-.67A2.434,2.434,0,0,0,166.61.07a2.442,2.442,0,0,0,2.63-2.64v-4.4h-.91v4.41c0,1.28-.68,1.83-1.71,1.83a1.594,1.594,0,0,1-1.72-1.83V-6.97h-.91Zm16.58.61c0,.76-.54,1.21-1.44,1.21h-1.61V-3.21h1.58C179.99-3.21,180.57-2.73,180.57-1.96Zm-.18-3.13c0,.71-.49,1.13-1.34,1.13h-1.53V-6.22h1.51C179.92-6.22,180.39-5.78,180.39-5.09Zm1.09,3.22a1.74,1.74,0,0,0-1.38-1.72,1.631,1.631,0,0,0,1.22-1.61c0-.97-.74-1.77-2.21-1.77h-2.5V0h2.6C180.65,0,181.48-.82,181.48-1.87Zm10.86-5.11h-3.75V0h3.75V-.75H189.5v-2.4h2.54V-3.9H189.5V-6.23h2.84ZM203.53,0h1.03l-2.14-3.48,2.15-3.49h-1.02l-1.6,2.73-1.68-2.73h-1.02l2.14,3.49L199.26,0h1.01l1.59-2.72Z" transform="translate(92 237)" fill="#26283d"/>
  </g>
</svg>
